<svg width="110" height="110" viewBox="0 0 110 110" fill="none" xmlns="http://www.w3.org/2000/svg">
<path d="M45.25 95.3806V73.4743C45.25 71.9431 46.8125 70.3806 48.375 70.3806H60.875C62.4375 70.3806 64 71.9431 64 73.5056V95.3806C64 96.2094 64.3292 97.0042 64.9153 97.5903C65.5014 98.1763 66.2962 98.5056 67.125 98.5056H92.125C92.9538 98.5056 93.7487 98.1763 94.3347 97.5903C94.9208 97.0042 95.25 96.2094 95.25 95.3806V51.6306C95.2507 51.2199 95.1705 50.8132 95.014 50.4335C94.8574 50.0539 94.6275 49.7088 94.3375 49.4181L85.875 40.9618V20.3806C85.875 19.5518 85.5458 18.7569 84.9597 18.1709C84.3737 17.5848 83.5788 17.2556 82.75 17.2556H76.5C75.6712 17.2556 74.8764 17.5848 74.2903 18.1709C73.7042 18.7569 73.375 19.5518 73.375 20.3806V28.4618L56.8375 11.9181C56.5472 11.6271 56.2024 11.3962 55.8227 11.2386C55.4431 11.0811 55.0361 11 54.625 11C54.214 11 53.807 11.0811 53.4273 11.2386C53.0476 11.3962 52.7028 11.6271 52.4125 11.9181L14.9125 49.4181C14.6225 49.7088 14.3926 50.0539 14.2361 50.4335C14.0795 50.8132 13.9993 51.2199 14 51.6306V95.3806C14 96.2094 14.3292 97.0042 14.9153 97.5903C15.5013 98.1763 16.2962 98.5056 17.125 98.5056H42.125C42.9538 98.5056 43.7487 98.1763 44.3347 97.5903C44.9208 97.0042 45.25 96.2094 45.25 95.3806Z" fill="#4F46E5"/>
</svg>
